IKResults
version=1
nRows=22
nColumns=16
inDegrees=yes

Units are S.I. units (second, meters, Newtons, ...)
If the header above contains a line with 'inDegrees', this indicates whether rotational values are in degrees (yes) or radians (no).

endheader
time	pelvis_tilt	pelvis_list	pelvis_rotation	pelvis_tx	pelvis_ty	pelvis_tz	hip_flexion_r	hip_adduction_r	hip_rotation_r	knee_angle_r	knee_adduction_r	knee_angle_r_beta	ankle_angle_r	subtalar_angle_r	mtp_angle_r
      0.40000000	    -20.27805058	      8.39800503	    -30.70540777	     -0.10346302	      0.93536649	      0.02676904	      8.88011192	    -11.58291862	    -17.32157852	     23.42538381	      8.92307204	      0.40885008	     -2.02480505	     18.93598174	    -28.58378284
      0.40500000	    -20.03457558	      7.98035312	    -30.54592607	     -0.09342390	      0.93655002	      0.02930705	      8.07055792	    -11.87830757	    -18.21944586	     25.37906519	      8.28957718	      0.44294825	     -3.45223053	     16.66749787	    -28.39757238
      0.41000000	    -19.11474521	      7.53899562	    -30.51450916	     -0.08360836	      0.93856836	      0.03159384	      6.63188855	    -12.57817749	    -18.97868033	     27.38342412	      7.59775201	      0.47793091	     -4.37345421	     15.24010914	    -28.39387352
      0.41500000	    -18.28829897	      6.99317876	    -30.68168720	     -0.07197029	      0.93935624	      0.03444480	      5.02679187	    -13.30770489	    -19.39903245	     29.30185128	      7.19818824	      0.51141378	     -5.41746940	     14.12113288	    -28.14736510
      0.42000000	    -17.81452954	      6.33305862	    -30.51283155	     -0.06209776	      0.94025074	      0.03671926	      3.67910136	    -13.55178483	    -19.35525539	     31.13795605	      6.90255022	      0.54345986	     -6.62886226	     12.17023157	    -28.03932810
      0.42500000	    -17.08451786	      5.89050931	    -30.48653759	     -0.05154411	      0.94082582	      0.03926147	      2.35600512	    -14.36449657	    -19.58250758	     33.36697851	      6.50453914	      0.58236364	     -7.53717340	     11.69747618	    -27.84712119
      0.43000000	    -16.45467524	      5.22185985	    -30.55584973	     -0.04170028	      0.94128327	      0.04186752	      0.98422387	    -14.75510569	    -19.43470780	     35.46159971	      6.08946314	      0.61892167	     -8.26395353	     11.00933228	    -27.82483951
      0.43500000	    -16.10960202	      4.72728166	    -30.60236885	     -0.03127478	      0.94122178	      0.04440362	     -0.03637432	    -15.17231334	    -19.01997159	     37.53767611	      5.73663112	      0.65515604	     -9.35921910	     10.85556215	    -27.77615992
      0.44000000	    -15.83497128	      4.39219359	    -30.61894129	     -0.02174880	      0.94106796	      0.04687014	     -0.75150417	    -15.61096651	    -18.38614300	     39.78771385	      5.32807887	      0.69442661	    -10.02701971	     10.36067238	    -27.91778253
      0.44500000	    -15.79082469	      3.67139716	    -30.42511718	     -0.01220733	      0.94031300	      0.04908683	     -1.47465533	    -15.43992807	    -18.05925922	     42.08117458	      4.65868362	      0.73445505	    -10.37564983	      9.97921291	    -28.15653531
      0.45000000	    -15.55288312	      3.27639103	    -30.59909381	     -0.00255780	      0.93980210	      0.05188539	     -2.15583277	    -15.73464970	    -16.66936626	     44.18614487	      4.59227928	      0.77119371	    -12.28797613	     10.20575235	    -27.76496589
      0.45500000	    -15.28441634	      2.71407427	    -30.72358138	      0.00734948	      0.93907975	      0.05453468	     -2.94731673	    -15.81438345	    -15.68397210	     46.22482972	      4.08905120	      0.80677547	    -13.56505346	     10.54622438	    -27.67815737
      0.46000000	    -15.19427231	      2.05241986	    -30.32143963	      0.01664505	      0.93807609	      0.05686453	     -3.78971250	    -15.45921739	    -15.27471580	     48.11793791	      3.34123452	      0.83981645	    -14.70118790	     10.43816607	    -27.70352121
      0.46500000	    -15.54423192	      0.99980309	    -29.87588471	      0.02523968	      0.93607572	      0.05920616	     -4.30594652	    -14.25506185	    -14.57338300	     50.07157295	      2.49100646	      0.87391381	    -16.09546322	     10.30384453	    -27.65595048
      0.47000000	    -15.27565086	      0.39823937	    -29.74240027	      0.03545014	      0.93459207	      0.06218329	     -5.27623203	    -13.99356327	    -14.21017478	     51.68363774	      1.43500964	      0.90204965	    -17.79012651	     10.50824510	    -27.54274824
      0.47500000	    -14.79352982	     -0.51165271	    -29.54734606	      0.04545149	      0.93281407	      0.06504536	     -6.58017644	    -13.34717343	    -14.06558078	     53.21262198	     -0.08045574	      0.92873546	    -19.31890062	     10.77844427	    -27.60688951
      0.48000000	    -14.38577699	     -1.18447691	    -29.27553814	      0.05564895	      0.93056498	      0.06759026	     -7.73754580	    -12.98309548	    -14.08936643	     54.75705647	     -1.53735593	      0.95569092	    -20.43052008	     10.75961105	    -27.27947905
      0.48500000	    -13.96335788	     -1.73047054	    -29.06369238	      0.06584821	      0.92834640	      0.07047414	     -8.84262547	    -12.63258108	    -13.50844790	     56.19955874	     -2.54556947	      0.98086734	    -22.33891076	     10.63108995	    -26.58542825
      0.49000000	    -13.15837590	     -2.51604673	    -28.45625527	      0.07598179	      0.92597575	      0.07280418	    -10.58316964	    -12.13253178	    -13.15168723	     57.55566455	     -3.42568722	      1.00453585	    -23.74352956	      8.69926565	    -25.91707822
      0.49500000	    -12.28589884	     -3.18024529	    -28.02855626	      0.08624734	      0.92317037	      0.07498017	    -12.24677240	    -11.87975029	    -12.19747898	     59.07216437	     -3.82217953	      1.03100376	    -25.30708740	      6.61338838	    -25.43718316
      0.50000000	    -11.58780610	     -3.54389997	    -27.81378518	      0.09729703	      0.92046481	      0.07826892	    -13.59992805	    -11.67717580	    -10.68021474	     60.47143952	     -3.91958424	      1.05542572	    -27.46826876	      4.23084827	    -25.00457034
      0.50500000	    -10.28784256	     -3.74567192	    -27.44821170	      0.10809685	      0.91729492	      0.08014647	    -15.27665937	    -12.23366842	    -10.26243908	     62.20896542	     -4.78275120	      1.08575127	    -28.42315933	      0.87530524	    -24.02196362
